<svg width="240" height="336" xmlns="http://www.w3.org/2000/svg" xmlns:xlink="http://www.w3.org/1999/xlink" preserveAspectRatio="none" face="QH" class="card">
 <defs>
  <rect y="-130.4" x="-82.4" height="260.8" width="164.8" id="HQX"/>
 </defs>
 <symbol preserveAspectRatio="xMinYMid" viewBox="-500 -500 1000 1000" id="HQ">
  <path id="svg_1" fill="none" stroke-miterlimit="1.5" stroke-linecap="square" stroke-width="80" stroke="red" d="m-260,100c300,0 220,360 520,360m-435,-460l0,-285a175,175 0 0 1 350,0l0,570a175,175 0 0 1 -350,0l0,-285z"/>
 </symbol>
 <symbol preserveAspectRatio="xMinYMid" viewBox="-600 -600 1200 1200" id="H">
  <path id="svg_2" fill="red" d="m0,-300c0,-100 100,-200 200,-200c100,0 200,100 200,250c0,250 -400,650 -400,750c0,-100 -400,-500 -400,-750c0,-150 100,-250 200,-250c100,0 200,100 200,200z"/>
 </symbol>
 <symbol viewBox="0 0 1300 2000" preserveAspectRatio="none" id="HQ1">
  <path id="svg_3" d="m798.125,0l198.02539,316.93359c30.48501,-16.06706 60.62481,-26.79877 98.84961,-11.93359c-29.7518,-93.65302 -66.2683,-185.69522 11.6836,-305l-308.5586,0zm-303.17969,58.91602c-67.13381,89.20983 -137.17979,256.44491 -209.17773,473.75586l15.62109,-9.03711l-18.01172,10.96289c89.61039,62.07958 188.59313,99.79514 291.49805,113.72265c29.42358,82.44201 45.91452,177.69944 53.13477,263.44141c16.14274,5.11028 33.43539,11.68412 51.53515,19.51953c42.50299,18.3996 67.67346,23.56276 85.70899,23.79492c4.53443,-101.69108 14.77857,-219.60609 49.41601,-315.82031l-2.07226,0.0781c63.31708,-13.02318 126.56541,-34.41672 188.57814,-64.10156l-19.45314,-18.4375c-230.69137,107.47659 -475.3635,97.04927 -674.76954,-36.37693l116.44141,-67.35742c26.77487,-78.12776 53.8738,-148.54571 80.72656,-209.17774c-4.71795,-36.80601 -9.12109,-75.75575 -9.12109,-83.88281l-0.05469,-101.08398zm770.05469,456.08398c-52.3034,7.9422 -64.6941,51.59204 -55,115c61.9504,-13.8352 19.3892,-83.15789 55,-115zm-1019.54883,53.69922c-24.81157,25.29489 -42.27809,53.29225 -50.63281,79.77734c-1.66482,5.27762 -2.98241,10.5867 -3.87891,15.50977c-4.75548,-3.91279 -11.30529,-10.16277 -20.19531,-24.13281c-7.07107,7.07106 -17.67848,24.74727 -10.60742,31.81836c-7.07106,-7.07106 -24.7473,3.53636 -31.81836,10.60742c18.90181,12.02843 23.66975,19.77367 26.97852,24.88086c-7.90943,0.93628 -16.21657,2.68878 -24.44727,5.28515c-27.12021,8.55507 -55.82554,26.66148 -81.5918,52.42774c-22.94486,22.94486 -39.79668,48.21915 -49.25781,72.63086l0,38.625c2.54858,-0.53117 5.13963,-0.85186 7.74219,-0.94532c11.40851,-0.40965 23.00711,3.46024 31.94531,12.39844c17.8764,17.8764 15.48219,46.3889 -0.88477,62.75586c-10.09587,10.09587 -24.81165,14.86396 -38.80273,12.8457l0,67.80861c7.3753,-12.2436 13.0459,-24.5693 16.83594,-36.584c2.12926,-6.7499 3.6888,-13.55111 4.88476,-20.70312c5.22493,2.77528 12.54528,8.39373 23.26953,25.24609c7.07106,-7.071 17.6785,-24.74726 10.60743,-31.81836c7.07107,7.0711 24.7473,-3.53632 31.81836,-10.60742c-15.69287,-9.98636 -21.64395,-17.0205 -24.80274,-21.86914c6.161,-0.882 12.1952,-2.32395 18.18945,-4.21484c27.12022,-8.55506 55.82553,-26.66342 81.5918,-52.42969c25.76626,-25.76626 43.87462,-54.47354 52.42969,-81.59375c2.56524,-8.13203 4.30604,-16.3365 4.97266,-24.49414c4.77035,2.97905 12.6553,7.32469 25.19335,27.02734c7.07107,-7.07106 17.6785,-24.74729 10.60743,-31.81836c7.07107,7.07107 24.7473,-3.53636 31.81836,-10.60742c-14.14046,-8.99848 -20.37077,-15.60067 -23.97461,-20.32227c5.06439,-0.84537 10.22254,-2.134 15.35156,-3.75195c14.91762,-4.70577 30.31546,-12.3034 45.43945,-22.47461c-155.46071,181.18498 -124.46187,482.69554 -166.2793,612.25584c0,0 17.15695,27.7673 22.3418,13.2071c10.08391,-28.3179 15.25224,-61.9857 20.08789,-99.7383c7.3221,-57.1639 12.255,-123.7851 22.1875,-192.2344c19.164,-132.0677 56.75654,-268.63293 159.92969,-356.36133l-3.76758,-29.15625l10.91406,-8.68945l-30.33789,-13.58985c-5.90169,7.84149 -12.63357,15.6355 -20.13671,23.13867c-23.01248,23.01248 -48.75541,38.77461 -70.23633,45.55079c-3.50661,1.10616 -6.83677,1.96253 -9.86524,1.95507c9.73945,-9.07723 12.90453,-20.86655 60.16602,-59.39062c-6.48182,-6.48181 -26.51605,-12.37455 -40.65821,1.76758c14.14214,-14.14213 8.24939,-34.17639 1.76758,-40.65821c-39.74603,48.76059 -51.03516,50.5831 -59.94726,61.47657c0.24766,-3.14402 1.20607,-7.0368 2.51172,-11.17579c6.77614,-21.48092 22.5383,-47.22384 45.55078,-70.23632c0.64983,-0.64983 1.30301,-1.29341 1.95703,-1.93164l-24.9668,-17.4668zm865.96293,8.84766c-10.2641,-0.13388 -20.8564,2.10799 -31.4141,7.45312c46.0391,-3.5732 39.6973,80.55961 115,60c-8.1179,-29.82911 -43.3193,-66.92794 -83.5859,-67.45312zm-79.5254,25.83398c-25.4836,49.98699 -30.1284,144.16541 -42.43948,250.28906l-2.14258,-0.0352c-3.40999,-0.90985 -6.88832,-1.6577 -10.43164,-2.23633c-70.24614,-11.47141 -139.22418,47.99805 -154.06641,132.83008c-14.00915,80.07053 25.21668,154.11753 88.91016,171.56843c24.05883,-46.9573 40.6276,-97.7625 52.61523,-149.1914c-11.9649,51.3853 -28.47239,102.1165 -52.4375,148.9355l-1.91601,56.0293l24.16992,-44.6387c54.85632,-107.1689 71.63021,-230.66952 83.09571,-336.74024c5.7327,-53.03537 10.0816,-101.7918 16.5391,-141.34571c5.8736,-22.70053 8.5169,-47.9106 17.871,-69.00781l-19.7675,-16.45698zm-822.00589,71.77539c10.70732,0.12035 21.42513,4.04622 29.80469,12.42578c17.8764,17.8764 15.48219,46.3889 -0.88477,62.75586c-16.36695,16.36694 -44.87947,18.76115 -62.75585,0.88477c-17.87643,-17.87639 -15.48219,-46.38889 0.88476,-62.75586c8.18348,-8.18348 19.40204,-12.87356 30.81055,-13.28321c0.71303,-0.0256 1.4268,-0.0354 2.14062,-0.0273l0,-0.00004zm-58.31054,62.79687c-7.18806,8.68188 -16.25911,22.28853 -55.07422,53.92774c6.48182,6.48181 26.51607,12.37455 40.6582,-1.76758c-14.14213,14.14213 -8.2494,34.17638 -1.76758,40.6582c31.75558,-38.95788 45.34645,-47.95293 53.96875,-55.08007c-0.53953,3.56165 -1.43837,7.11357 -2.62304,10.86914c-6.77617,21.48091 -22.54028,47.22385 -45.55274,70.23633c-23.01247,23.01247 -48.75541,38.77659 -70.23633,45.55273c-3.4559,1.09017 -6.7393,1.93878 -9.94336,2.14648c8.36517,-8.80995 13.88156,-21.41914 58.23438,-57.57226c-6.48182,-6.48181 -26.51608,-12.37455 -40.65821,1.76758c14.14213,-14.14213 8.24939,-34.17638 1.76758,-40.65821c-37.61582,46.14726 -49.7428,50.25284 -58.20703,59.4668c0.58897,-3.43097 1.52361,-7.18895 2.78125,-11.17578c6.77614,-21.48092 22.53832,-47.22385 45.55078,-70.23633c23.01246,-23.01245 48.75737,-38.77658 70.23828,-45.55273c3.78182,-1.19296 7.35669,-2.0953 10.86329,-2.58204zm1148.42773,50.56446l-198.9785,184.24023l-5,29.99999l203.9785,-188.86913l0,-25.37109zm-1135,141.48242a15,15 0 0 0 -15,15a15,15 0 0 0 15,15a15,15 0 0 0 15,-15a15,15 0 0 0 -15,-15zm-126.57227,117.3789a15,15 0 0 0 -15,15a15,15 0 0 0 15,15a15,15 0 0 0 15,-15a15,15 0 0 0 -15,-15z" fill="#FC4"/>
 </symbol>
 <symbol viewBox="0 0 1300 2000" preserveAspectRatio="none" id="HQ2">
  <path id="svg_4" d="m746.03906,0l206.08789,341.30664c15.25792,-7.89742 29.39971,-16.48114 43.91993,-24.31836l-197.92579,-316.98828l-52.08203,0zm128.96094,35c-31.09169,8.31411 -41.51778,4.39784 -53.96875,1.67969l57.98828,92.05859c6.95165,-19.44843 14.228,-38.92266 25.98047,-58.73828c-2.13718,-16.47351 2.28614,-21.78214 5,-30c-17.31384,2.03728 -27.14836,-0.83108 -35,-5zm165,245c-15.2965,3.82414 -45.21675,4.72338 -66.08398,0.46094l23.33203,36.01172c26.13895,-13.72397 51.82305,-23.14214 82.58595,-16.33789c-15.235,-5.7615 -30.8978,-11.25941 -39.834,-20.13477zm130,20c0,14.47623 -11.3428,28.05907 -19.5801,38.24219c-28.5032,-21.35508 -68.6004,20.92457 -47.7363,47.35547c-9.7615,8.17358 -23.2805,19.40234 -37.6836,19.40234c14.2873,0 27.7035,11.04888 38.0605,18.70898c-22.7056,26.03072 19.1841,70.55521 47.3907,47.25977c7.4722,10.11093 19.5488,24.09504 19.5488,39.03125c0,-16.16559 14.145,-31.21637 21.4883,-41.59375c28.9733,29.69847 76.233,-20.1259 48.3535,-46.71289c9.7851,-7.47588 22.1087,-16.69336 35.1582,-16.69336c-12.8189,0 -24.9374,-8.8943 -34.832,-16.55859c27.3854,-26.86428 -19.6947,-76.4382 -48.8457,-47.14453c-7.6569,-10.59613 -21.3223,-25.40797 -21.3223,-41.29688zm-0.045,36.95703a3.0003,3.0003 0 0 1 3.045,3.04297l0,22.62305c20.7754,1.51644 37.8605,18.60163 39.377,39.37695l27.623,0a3.0003,3.0003 0 1 1 0,6l-27.623,0c-1.5165,20.77532 -18.6016,37.86051 -39.377,39.37695l0,27.62305a3.0003,3.0003 0 1 1 -6,0l0,-27.62305c-20.7754,-1.51644 -37.8605,-18.60163 -39.377,-39.37695l-27.623,0a3.0003,3.0003 0 1 1 0,-6l27.623,0c1.5165,-20.77532 18.6016,-37.86051 39.377,-39.37695l0,-22.62305a3.0003,3.0003 0 0 1 2.9551,-3.04297l-0.0001,0zm-692.10549,84.54492l-56.74023,32.92578c169.11103,93.38515 326.43729,62.84457 482.07226,15.60547c-11.29795,-14.85685 -22.13508,-30.33863 -32.57812,-46.59961l-0.3711,-0.80859c-134.97326,39.93921 -257.92619,61.7732 -392.38281,-1.12305zm-87.25977,228.13282l-12.51367,8.07031c9.90456,58.4667 14.52116,126.90477 10.3418,186.23242c31.25135,8.71173 56.59628,31.0153 73.09961,61.36133c15.58022,-4.13129 31.75325,-7.55717 49.32617,-9.16016c6.29715,-0.57442 12.65066,-0.89187 19.07617,-0.95117c23.49424,-0.217 47.9301,3.00069 73.79297,9.54492c-6.75479,-67.01953 -19.69228,-143.35101 -38.71084,-207.42187c-59.55354,-8.72988 -118.0897,-24.43043 -174.41211,-47.67578l-0.0001,0zm504.78711,20.11914l-70.14453,17.49023c-23.96928,84.29878 -30.93715,172.324 -34.75976,263.52344c13.061,-2.37876 28.42119,-9.18917 50.66015,-20.19922l0.00791,-0.56836c14.21407,-27.10399 34.59535,-48.9267 58.19532,-63.05664l-3.95909,-197.18945zm-686.67578,35.26562a13.75,15 45 0 0 -10.55664,4.66016a13.75,15 45 0 0 -0.88476,20.33008a13.75,15 45 0 0 20.33007,-0.88477a13.75,15 45 0 0 0.88282,-20.33008a13.75,15 45 0 0 -9.77149,-3.77539zm1047.02543,36.81055c14.7777,7.70563 29.5386,15.28067 44.2734,22.82031l0,-0.0684l-44.2734,-22.75191zm-1247.02533,163.18945a13.75,15 45 0 0 -8.70117,3.08399l0,23.96484a13.75,15 45 0 0 17.58984,-2.94336a13.75,15 45 0 0 0.88282,-20.33008a13.75,15 45 0 0 -9.77149,-3.77539zm531.29883,49.98047a10,10 0 0 0 -10,10a10,10 0 0 0 10,10a10,10 0 0 0 10,-10a10,10 0 0 0 -10,-10zm110,35a10,10 0 0 0 -10,10a10,10 0 0 0 10,10a10,10 0 0 0 10,-10a10,10 0 0 0 -10,-10z" fill="red"/>
 </symbol>
 <symbol viewBox="0 0 1300 2000" preserveAspectRatio="none" id="HQ3">
  <path id="svg_5" d="m526.43945,166.69922a12.5,20.06855 0 0 0 -12.5,20.06836a12.5,20.06855 0 0 0 12.5,20.06836a12.5,20.06855 0 0 0 12.5,-20.06836a12.5,20.06855 0 0 0 -12.5,-20.06836zm152.38086,2.47461a12.5,20.06855 0 0 0 -12.5,20.06836a12.5,20.06855 0 0 0 12.5,20.06836a12.5,20.06855 0 0 0 12.5,-20.06836a12.5,20.06855 0 0 0 -12.5,-20.06836zm-200.18164,254.76367l-9.70117,2.42383l1.21094,4.85156l11.53711,46.14844l36.53515,-19.01563l14.37891,33.78516l35.80664,-20.46094l22.60156,34.31446l32.99219,-27.20313l26.43164,31.55469l29.7832,-30.64258l30.43555,27.65234l23.95508,-31.07812l29.28515,26.37695l25.16993,-38.99414l37.71289,23.32422l20.20898,-35.36719l38.17969,19.32227l6.5918,-15.51172l-6.64649,-9.92383l-4.9668,11.68555l-37.12304,-18.78711l-19.79102,34.63086l-37.24804,-23.03711l-24.1211,37.36914l-28.58203,-25.74414l-23.92578,31.04101l-29.56445,-26.86132l-28.80274,29.63086l-25.68945,-30.66797l-32.05664,26.43359l-21.64258,-32.85742l-34.19336,19.53906l-14.20898,-33.38476l-34.87696,18.15429l-8.46289,-33.85156l-1.21289,-4.84961zm-57.34179,30.38086l-114.50391,66.25781c199.45786,133.26536 444.18766,143.72045 674.12891,36.00977c-27.70592,-26.00195 -53.37955,-54.40238 -77.5293,-86.27344c-5.42499,1.63467 -10.85226,3.24169 -16.28125,4.83203l56.91797,44.07031l6.72265,19.91407c12.79221,37.89934 -28.30624,41.21745 -37.90039,12.79297l-25.89844,-76.73047c-1.27818,0.37431 -2.55749,0.73783 -3.83593,1.10937l25.49609,81.25391c11.97581,38.16517 -29.1822,40.60044 -38.16406,11.97656l-25.44922,-81.10156l31.38086,-10.17578c-11.94025,3.42062 -23.89434,6.69533 -35.86328,9.80273l18.7168,85.55274c8.54827,39.07591 -32.66498,37.85576 -39.07618,8.54882l-18.16601,-83.03711l33.52539,-9.77734c-11.64041,2.97109 -23.2955,5.7849 -34.97266,8.35742l13.62305,86.19531c6.24439,39.50959 -34.82452,35.87636 -39.50781,6.24414l-13.26954,-83.95703l21.43555,-4.76562c-7.48456,1.49541 -14.9783,2.88959 -22.48242,4.17383l6.44531,85.21679c3.01718,39.88604 -37.62383,32.93212 -39.88672,3.01758l-6.24414,-82.55273c-1.69197,0.19213 -3.3849,0.37203 -5.07812,0.55078l7.04492,82.85156c3.38896,39.85617 -37.31375,33.28081 -39.85547,3.38867l-7.08789,-83.34179c-0.71528,0.0272 -1.43095,0.0517 -2.14648,0.0762l0,84.08984c0,40 -40,30 -40,0l0,-84.22461c-1.4073,-0.0589 -2.81424,-0.11266 -4.22266,-0.18359l-7.96484,82.47265c-3.84586,39.81471 -42.70081,26.01531 -39.81641,-3.8457l7.94922,-82.28906c-1.81997,-0.24421 -3.6389,-0.48946 -5.46094,-0.75586l-7.74609,79.51367c-3.87852,39.81152 -42.72139,25.97974 -39.8125,-3.8789l8.10351,-83.17579c-0.89679,-0.21219 -1.79407,-0.43429 -2.6914,-0.65234l-20.76172,79.11914c-10.15296,38.69002 -46.30419,18.86517 -38.68945,-10.15234l15.68945,-59.78711l-22.75391,55.875c-15.08612,37.04604 -48.36146,12.69858 -37.04687,-15.08594l27.29883,-67.03125l-37.2168,69.73047c-18.83383,35.28862 -49.41443,7.63248 -35.28906,-18.83399l37.82031,-70.86328l-53.89844,64c-25.76676,30.59532 -49.92077,-2.82108 -30.5957,-25.76757l8.57226,-10.17969l77.58399,-31.16797l0.53906,-1.00977l0.9082,0.42774l0.006,-0.002l-0.004,0.004l0.33984,0.16016c-4.35238,-2.2534 -8.71043,-4.56895 -13.07812,-6.98633l-0.00004,-0.00008zm572.5371,178.67773c-32.99272,14.84336 -65.94871,26.89166 -98.86132,36.87891l4.71093,196.86328c20.17285,-11.65399 42.26345,-17.69551 64.92579,-16.69531c0.49896,-3.37058 0.87631,-6.67392 1.24609,-9.9668c8.96545,-79.83689 12.57389,-152.20224 27.97851,-207.08008zm-207.22656,11.19532c-23.74309,4.06133 -47.59438,6.91352 -71.58789,8.60351c47.18437,3.22563 63.19132,22.5391 7.04492,27.49024c38.72188,4.92605 44.10027,19.54961 -7.06445,24.71484c39.99949,4.04007 53.54843,23.37746 -1.51953,32.61719c34.78608,4.84217 43.16516,22.43333 -0.62695,27.38281l0,7.21875c32.00156,6.4503 40.40255,19.46742 -0.40821,22.53516l-0.14843,8.13281c30.46298,5.04349 37.38878,16.29741 -0.38672,21.33008l-0.082,4.49609c25.3503,5.12276 30.48355,14.81855 -0.35937,19.83594l-0.0918,5.07617c25.8672,5.12444 31.1915,14.98029 -0.36328,20.00391l-0.0879,4.9082c26.37966,5.12263 31.87557,15.13222 -0.36523,20.16211l-0.0156,0.83008c21.08411,5.04767 24.91227,13.46952 -0.33398,18.36328l-0.0274,1.55273c21.49299,5.06023 25.43089,13.60081 -0.33593,18.51172l-0.0977,5.38477c11.78027,4.05356 22.05764,6.94407 30.75586,8.76367c4.05205,-97.40548 13.95685,-212.67202 46.10156,-307.91406l0.00003,0zm-184.51562,7.1582c30.0166,86.81703 45.43556,181.08389 51.96875,269.5293c8.13377,3.10564 16.71432,6.60577 25.48437,10.40234c5.16803,2.23725 10.0794,4.27936 14.92969,6.39453l-0.82813,-16.97266c-41.0223,-2.56281 -48.05473,-16.72297 -1.10937,-22.7246l-0.16406,-3.33985c-42.02184,-2.43082 -49.2894,-16.89508 -1.11719,-22.87695l-0.043,-0.89844c-44.05097,-2.14926 -51.82079,-17.25165 -1.13281,-23.18164l-0.14258,-2.9082c-45.02802,-2.00994 -53.08341,-17.41468 -1.13672,-23.31055l-0.0625,-1.26758c-47.39134,-1.83613 -56.19316,-19.83867 -1.28516,-26.31445l-0.0762,-1.54883c-51.16279,-1.13481 -61.00056,-20.48283 -1.30664,-26.76367l-0.11523,-2.37891c-49.98126,-1.36067 -59.47319,-20.28945 -1.30072,-26.63867l-0.0762,-1.56055c-56.12783,-0.11938 -67.56174,-22.89909 -1.42968,-29.28906l-0.0215,-0.4082c-63.898,1.84831 -77.87835,-24.12737 -1.45312,-29.77539l-0.0391,-0.78516c-56.39787,2.38257 -77.67165,-12.67231 -39.22657,-20.72656c-13.54401,-0.45894 -27.00034,-1.3419 -40.3164,-2.65625l0.00007,0zm653.6348,90.48047c6.2064,3.23624 12.4119,6.45101 18.6152,9.65039c8.5624,4.41612 17.1161,8.7971 25.6582,13.16797l0,-0.0664l-44.2734,-22.75196zm18.6152,9.65039c-0.7477,-0.38573 -1.4943,-0.77014 -2.2422,-1.15625l-2.8808,2.41601c13.9611,7.23997 1.8654,26.48229 -27.9571,28.85157c-0.6666,0.053 -1.3267,0.10269 -1.5429,0.20312c-2.8868,19.36442 -21.0422,42.85055 -34.7188,48.20508c-18.5269,7.25347 -62.3175,13.8707 -86.9004,-6.99219c-4.8223,45.97573 -9.7283,97.03125 -17.4101,149.50391l199.3105,-184.32422l0,-23.31641c-8.496,-4.53016 -17.0663,-8.95826 -25.6582,-13.39062z" fill="#44F"/>
 </symbol>
 <symbol viewBox="0 0 1300 2000" preserveAspectRatio="none" id="HQ4">
  <path id="svg_6" d="m676.06641,0l363.93359,600l50,-30l-343.96484,-570l-69.96875,0zm-171.92579,244.02539c-26.87125,60.48973 -53.97143,130.90814 -80.92382,209.13867l122.21875,-70.96875c-17.00714,-29.42152 -28.2039,-58.26871 -30.43555,-67.19531c-2.28406,-9.13626 -6.654,-39.14028 -10.85938,-70.97461zm-244.66796,304.30078l-24.02735,13.42578c100.21065,74.15489 212.68038,118.87952 329.55664,135.5586c19.01856,64.07086 31.95755,140.40246 38.45703,207.35742c7.82282,1.98583 15.91382,4.30428 24.60352,7.10937c-6.47902,-76.91214 -20.45964,-161.49964 -44.39648,-237.52929c-114.76693,-13.35149 -225.32446,-55.07902 -324.19336,-125.92188zm762.29684,44.67969c-70.66485,34.82432 -143.21898,59.19339 -215.76364,72.40039c-27.71471,90.50343 -36.59816,196.84663 -41.05469,289.66602c3.35201,0.074 6.83355,-0.0769 10.08008,-0.37305c4.95761,-0.45223 9.92965,-1.35478 15.47461,-3.93945c3.78994,-91.19072 10.75727,-179.21685 34.72656,-263.51563c56.38564,-11.54778 112.8155,-29.49407 168.60156,-54.24805c-15.40462,54.87784 -19.01306,127.24319 -27.97851,207.08008c-0.36978,3.29288 -0.74645,6.5965 -1.51563,9.95508c3.90847,0.22506 8.21984,0.66249 12.53516,1.36719c3.54332,0.57863 7.0211,1.3263 11.54297,1.97851c13.37813,-106.16949 18.02873,-200.09048 43.47073,-249.99609l-10.1192,-10.375z" fill="black"/>
 </symbol>
 <symbol viewBox="0 0 1300 2000" preserveAspectRatio="none" id="HQ5">
  <path id="svg_7" d="m545.838,382.40958l-545.83834,316.01167m210.00391,268.61249l-210.00407,194.44816m911.89671,-5.9411c99.38709,-194.16568 70.75668,-455.58123 119.99249,-552.15929m-643.43144,240.56699c63.51674,17.7062 102.74371,91.7518 88.73456,171.8223c-14.84223,84.832 -83.81994,144.3026 -154.06608,132.8312c-3.54332,-0.5786 -7.02218,-1.3267 -10.43217,-2.2366m597.28594,65.2046l24.17088,-44.6384c54.85632,-107.1689 71.63021,-230.66947 83.09571,-336.74019c5.7327,-53.03537 10.0816,-101.7918 16.5391,-141.34571c5.8736,-22.70053 8.5174,-47.90974 17.8715,-69.00695m67.8411,45.30651c-9.9478,28.19624 -15.0782,61.66045 -19.8806,99.15357c-7.3221,57.16385 -12.255,123.78509 -22.1875,192.23437c-19.164,132.0677 -56.7571,268.6324 -159.93025,356.3608m-539.42284,-655.1886c9.90456,58.4667 14.51989,126.9043 10.30043,186.2208m-230.42387,478.3065c46.14203,-142.959 3.6278,-495.27188 220.77976,-664.28425l10.91438,-8.68776m866.07859,92.56975c14.7981,7.71629 29.5968,15.31204 44.3521,22.86187m-549.38409,-641.60287c68.41761,306.46514 221.93186,452.11195 390.96519,555.148m-858.28173,-143.64054c211.008,146.18047 473.964,157.35655 717.79923,40.63511m-741.70476,-26.90563c98.8689,70.84286 209.42649,112.56949 324.30152,126.00234m222.08452,-8.40951c72.69266,-13.71959 145.24671,-38.08919 215.91162,-72.91351m-40.0469,-36.2104c-230.74251,107.5004 -475.47251,97.04563 -674.90266,-36.4647m794.20106,452.42773l198.9794,-184.2402m-404.78977,-118.55859l4.16258,196.82083m-74.41003,-179.37267c56.65536,-11.71079 113.08494,-29.65743 168.47343,-53.74053m-757.99199,-71.91556c100.21065,74.15489 212.68115,118.8803 329.73182,135.11225m429.05531,-64.53846c-15.80219,55.54873 -19.41083,127.91388 -28.37628,207.75077c-0.36978,3.29288 -0.74635,6.5965 -1.1305,9.90986m-249.9224,-197.15301l-4.69876,290.7436m-29.43705,-289.57466l13.98498,283.92763m120.01889,-298.67426c-34.63744,96.21422 -44.88224,214.13029 -49.25917,315.81626m-190.55708,-306.81281c29.43746,82.45626 45.93283,177.7386 53.64308,263.69146m162.26505,37.63728c3.53303,-90.01922 10.5011,-178.04405 34.7401,-262.50585m-39.01633,-42.90491c-32.02269,95.25653 -41.92905,210.52384 -46.15246,307.88302m-85.99944,-31.08399c-6.80715,-88.54273 -22.2265,-182.80873 -51.9444,-269.70385m-37.56235,46.48617c19.19296,63.62374 32.13126,139.95511 38.75326,206.92703m72.48493,-904.68477l363.93418,599.99963l50,-30l-343.96534,-569.9997m206.22362,341.3083c48.66512,-25.4142 87.15512,-57.9256 142.74172,-36.3086c-29.7473,-93.63893 -66.266,-185.66512 11.6398,-304.94376m-110.05099,316.52591l-198.45435,-316.58194m190.37635,303.78515l-43.7224,25.50474m34.3998,-40.89989l-43.23744,25.22184m33.50647,-40.37877l-43.08431,25.13251m33.44994,-40.3458l-43.35958,25.29309m33.96736,-40.64763l-30.22174,17.62935m20.50206,-32.79287l-22.52482,13.13948m121.81385,-95.64141c-45,15 -83.58957,-37.43579 -115,-15c-35.00012,24.99983 5.62074,69.68963 25,60c20,-10 15,-40 -5,-40c-20,0 -10,15 -10,15m105,-20c-35.2326,31.75948 -8.6313,91.18201 -43.63494,107.45231c-39.00402,18.12969 -57.86454,-39.24199 -39.88137,-51.32717c18.55919,-12.47226 42.19678,6.66577 32.33833,24.06726c-9.85844,17.40146 -17.98032,1.30689 -17.98032,1.30689m-43.47872,-19.96422c26.7651,-8.23271 51.76533,-24.32415 77.63702,-36.53507m-50,25c22.59425,-17.66394 26.08007,-20.22888 30,-35m-30,35c17.82252,-3.50586 40,-2.73029 50,5m-41.75989,63.59543c26.92064,10.70237 56.75989,6.40457 81.75989,-8.59543c10.1624,20.30608 32.0159,34.07048 50,50m-121.08435,-24.53897c20.86723,4.26244 50.78785,3.36311 66.08435,-0.46103c8.9362,8.87536 24.5981,14.37237 40,20m-258.96856,-263.3207c12.45097,2.71815 22.87687,6.63481 53.96856,-1.6793c7.85164,4.16892 17.68616,7.03728 35,5c-2.71386,8.21786 -7.13718,13.52649 -5,30c-11.75247,19.81562 -19.0289,39.2889 -25.98055,58.73733m18.70489,30.61352c4.63935,-23.73006 2.01709,-48.18769 32.27566,-69.35085c1.61548,-29.33126 6.91125,-59.47744 13.84668,-89.98668m-522.76624,454.23759c169.14032,93.56156 326.46568,63.02065 482.20961,15.86864m-33.05736,-47.49372c-134.97326,39.93921 -257.92573,61.77254 -392.67103,-1.22531m664.28184,256.99981c0,0 16.2001,-16.44391 18.1565,-18.40033c5,-5 27.7553,2.1466 39.3842,-13.48933c16.8462,-22.65095 34.8291,-5.69455 17.537,13.28408c-14.2871,15.68051 -36.9212,27.39737 -36.9212,27.39737c10.5216,34.89336 5.9503,67.2913 -10,97.80788m60,-140c40,-50 60.4702,-13.56217 25,20c-39.8629,37.71853 -63.642,28.30244 -25,-20l0,0m5.5241,35.0038c52.1811,-37.10984 61.8709,3.54544 18.555,26.09052c-48.6803,25.33706 -68.9644,9.75938 -18.555,-26.09052l0,0m0.2171,35.44005c54.2425,-29.75136 58.1949,11.838 14.2311,28.34987c-49.4084,18.55666 -66.6318,0.39139 -14.2311,-28.34987l0,0m-0.4486,37.09076c55.0738,-12.59586 48.8229,25.65318 5.9684,29.05788c-48.1618,3.82627 -59.1723,-16.88964 -5.9684,-29.05788l0,0m4.8619,29.31632c-3.3225,19.30763 -21.4779,42.79454 -35.1545,48.14907c-18.5269,7.25347 -62.3179,13.87163 -86.9522,-6.55084m-531.45224,154.23316c6.93102,1.79604 14.16001,3.93691 21.72999,6.44742m-128.49821,-5.37406c5.08742,-1.64369 10.20248,-3.08348 15.39388,-4.29133m345.91216,-43.89602c-31.00701,15.35093 -48.64245,22.53823 -66.10213,24.13089c-18.43533,1.68166 -44.48021,-1.33735 -95.48633,-23.41797c-56.2134,-24.33485 -104.64639,-36.50918 -149.625,-36.09375c-6.42551,0.0593 -12.77902,0.37675 -19.07617,0.95117c-17.57292,1.60299 -33.74548,5.02947 -48.86909,9.56858m34.63108,53.09646c-6.12253,1.25438 -12.10187,2.80299 -17.99533,4.60054m136.68123,7.24981c-11.60245,-3.91703 -22.52901,-7.03736 -32.90161,-9.42145m64.85193,21.5157c-2.43795,-1.01347 -4.84784,-1.99646 -7.2305,-2.94941m105.95795,33.949c-21.42451,-2.6444 -46.39131,-9.4416 -77.45704,-22.03561m151.94358,13.63391c-13.17737,4.6655 -26.13542,7.8425 -39.97548,9.105c-2.44817,0.2233 -4.93354,0.3886 -7.46237,0.4919m-248.5608,-74.61918c-3.20712,0.13076 -6.38077,0.34038 -9.52566,0.62725c-13.54724,1.23577 -26.21255,3.83475 -38.37884,7.40082m173.22777,19.21903c-36.13853,-14.77335 -66.92763,-23.19001 -94.67663,-26.1672m184.85646,56.3333c-16.3138,-2.72466 -35.18035,-8.01435 -57.93523,-16.80423m140.07574,7.77965c-14.68669,5.731 -28.38425,9.46761 -42.98177,10.79918m-259.07478,-73.98409c-2.17001,0.12805 -4.32833,0.29013 -6.476,0.48604c-14.27719,1.30236 -27.58866,3.99904 -40.26705,7.65265m352.20854,37.40673c-17.40101,7.5008 -32.15396,12.07815 -47.75399,13.50117c-24.8237,2.2644 -56.47524,-2.53498 -110.12891,-25.76172c-40.94616,-17.72565 -76.09352,-28.15158 -107.97941,-31.97119m362.76255,206.62249c-1.31568,-0.6092 -2.703,-1.112 -4.15423,-1.495c-48.7151,-13.5801 -83.01509,-73.7426 -70.82227,-143.43169c12.9179,-73.83331 71.29896,-121.30364 125.41211,-112.4668c2.72949,0.44573 5.39977,1.02079 8.01563,1.71875c1.84733,0.52403 3.70446,0.82603 5.5431,0.92205m-31.40443,161.28889c-19.32997,0 -35,-17.9086 -35,-40c0,-22.09139 15.67004,-39.99999 35,-39.99999c6.60938,0 12.79087,2.09373 18.06437,5.73251m-10.55984,49.11398c-2.20733,1.4604 -4.77051,2.2964 -7.50453,2.2964c-8.28431,0 -15.00005,-7.6752 -15,-17.14297c0.00003,-9.46771 6.71575,-17.14279 15,-17.14279c5.25511,0 9.87904,3.08844 12.55792,7.76377m-26.7186,-27.25399l-20.83932,-48.36692l-32.7019,-5l2.7019,40l-35,15l15,40l-23.18198,30l33.18198,20l-10,40l40,0l5,35m5,-215l20,-35l35,20l-12.61978,60.65789m12.61978,-60.65789l10.25547,-10.25547m-75.25547,205.25547l29.33944,-59.5217m-59.33944,19.5217l46.21737,-32.3537m-56.21737,-17.6463l50.10954,-2.7875m-30.10954,-52.2125l36.29267,26.48652m-21.29267,-41.48652l27.70571,34.18927m17.29429,-59.18927l2.87052,49.48981m-72.87052,20.51019l41.19777,10.37107m-46.19777,39.62893l46.85607,-16.6873m-21.85607,56.6873l32.52274,-39.4533m-17.52274,99.4533l11.12069,-4.4483m8.87931,-35.5517l11.82482,-50.9246m-729.23513,-309.95036a13.75,15 45 0 1 -20.32931,0.88388a13.75,15 45 0 1 0.88387,-20.32932a13.75,15 45 0 1 20.32932,-0.88388a13.75,15 45 0 1 -0.88388,20.32932l0,0m2.21679,16.29361c4.25225,3.00471 7.23595,8.20188 6.68988,19.49941m7.17525,-33.90474c3.39348,3.89696 8.95626,6.41454 20.55501,5.09409m-73.30015,-29.19565c-3.00471,-4.25226 -8.20188,-7.23594 -19.49941,-6.68987m33.90474,-7.17527c-3.89696,-3.39347 -6.41455,-8.95626 -5.09408,-20.55499m9.96893,67.53464c-6.35453,5.55159 -11.80322,13.41168 -14.7314,27.69501m1.76778,-40.65863c-5.5516,6.35453 -13.4117,11.80322 -27.69502,14.73139m68.94291,-30.05204c5.5516,-6.35454 13.4117,-11.80322 27.69501,-14.73139m-40.65864,1.76776c6.35455,-5.55159 11.80323,-13.41169 14.73139,-27.695m-17.08841,81.90652c0.45476,28.00908 7.07107,7.07107 31.81981,45.96194c7.07107,-7.07106 17.67767,-24.74873 10.6066,-31.8198c7.07107,7.07107 24.74874,-3.53554 31.8198,-10.6066c-38.89087,-24.74874 -17.95286,-31.36505 -45.96194,-31.81981m-67.17514,-10.6066c-28.00907,-0.45476 -7.07107,-7.07107 -45.96193,-31.81981c7.07106,-7.07106 24.74873,-17.67766 31.81979,-10.6066c-7.07106,-7.07106 3.53554,-24.74874 10.60661,-31.8198c24.74873,38.89087 31.36505,17.95286 31.8198,45.96194m4.1248,60.69334c-15.83478,41.09289 -14.14215,14.14213 -71.29994,84.26355c-6.48182,-6.48182 -12.37437,-26.51651 1.76776,-40.65864c-14.14213,14.14213 -34.17682,8.24958 -40.65864,1.76777c70.12142,-57.15779 43.17066,-55.46517 84.26356,-71.29994m54.21153,-2.35702c41.09289,-15.83477 14.14214,-14.14215 84.26356,-71.29994c-6.48182,-6.48181 -26.51651,-12.37436 -40.65864,1.76777c14.14213,-14.14213 8.24957,-34.17682 1.76776,-40.65864c-57.15778,70.12141 -55.46517,43.17066 -71.29993,84.26356m-209.05514,215.79364a13.75,15 45 0 1 18.48323,0.70551a13.75,15 45 0 1 -0.88388,20.32932a13.75,15 45 0 1 -17.59665,2.95817m19.81345,13.33539c4.25222,3.0048 7.23589,8.202 6.68988,19.4994m7.17522,-33.90467c3.39349,3.89695 8.95629,6.41457 20.555,5.09411m-54.01994,3.91886c-0.07192,0.0628 -0.14372,0.12596 -0.21541,0.18939m28.49968,-28.47369c5.55158,-6.35453 13.41169,-11.80322 27.695,-14.73138m-40.65863,1.76775c6.35453,-5.55158 11.80323,-13.41168 14.73138,-27.69499m-17.0884,81.90652c0.45472,28.0091 7.07107,7.0711 31.81981,45.9619c7.07106,-7.071 17.67767,-24.7487 10.6066,-31.8198c7.07107,7.0711 24.74874,-3.5355 31.8198,-10.6066c-38.89087,-24.74871 -17.95287,-31.36502 -45.96194,-31.81978m-41.45455,-54.07999c1.68735,2.5151 2.42249,6.49298 2.56368,15.18912m4.12479,60.69335c-2.53512,6.57888 -4.62098,11.41372 -6.57101,15.18206m34.85529,-43.46634c41.09288,-15.83477 14.14212,-14.14215 84.26355,-71.29994c-6.48182,-6.48181 -26.51652,-12.37436 -40.65865,1.76777c14.14213,-14.14213 8.24958,-34.17682 1.76778,-40.65865c-57.1578,70.12143 -55.46518,43.17067 -71.29994,84.26356m13.03712,-24.70863c0.64414,-3.51959 1.57905,-7.27656 2.83669,-11.26339c6.77614,-21.48092 22.53971,-47.22491 45.55217,-70.23739c23.01246,-23.01245 48.75645,-38.776 70.23736,-45.55215c3.78182,-1.19296 7.3568,-2.09554 10.71853,-2.73501m38.0286,38.11197c-0.63865,3.34135 -1.53696,6.89295 -2.72165,10.64852c-6.77615,21.48091 -22.5397,47.22489 -45.55216,70.23735c-23.01247,23.01247 -48.75646,38.77604 -70.23738,45.55218c-3.4559,1.09017 -6.7391,1.93782 -9.84468,2.56381m1.71115,29.7621c5.9631,-0.90155 11.99763,-2.3444 17.99189,-4.23529c27.12021,-8.55506 55.82595,-26.66332 81.59222,-52.42959c25.76626,-25.76626 43.87452,-54.472 52.42959,-81.59221c2.56524,-8.13203 4.30589,-16.33817 4.98909,-24.33954m-64.33285,-64.64841c-8.09338,0.66548 -16.4,2.41712 -24.6307,5.01349c-27.12021,8.55507 -55.82595,26.66332 -81.59221,52.42958c-22.96894,22.96893 -39.85239,48.27374 -49.30786,72.70897m263.43708,-101.32084c5.118,-0.90346 10.2765,-2.19337 15.40552,-3.81132c14.98052,-4.72561 30.44482,-12.36606 45.63025,-22.60196m-78.97273,-141.14971c-24.81157,25.29489 -42.27726,53.29212 -50.63198,79.77721c-1.66482,5.27762 -2.98233,10.58643 -3.88887,15.85024m29.07032,5.67347c0.64573,-3.6351 1.60353,-7.52636 2.90918,-11.66535c6.77614,-21.48092 22.53969,-47.2249 45.55217,-70.23738c0.64983,-0.64983 1.30184,-1.29388 1.95586,-1.93211m88.89223,49.50457c-5.90169,7.84149 -12.63424,15.63504 -20.13741,23.13821c-23.01248,23.01248 -48.75646,38.77604 -70.23738,45.55218c-3.50661,1.10616 -6.8354,1.96264 -9.98126,2.59122m-258.85593,323.88776c7.32997,-12.193 12.9634,-24.466 16.73755,-36.43031c2.12926,-6.7499 3.69041,-13.5509 4.55025,-20.2434m31.50358,92.28751l27.17011,20.9001m-77.92473,-59.9421l29.00385,22.3107m7.41198,27.24l28.80303,22.1562m-67.35362,-51.8105l24.26651,18.6665m-24.2662,2.8722l54.64715,42.0362m-54.64778,-20.4982l41.94191,32.263m-41.94068,-10.7237l29.23451,22.4881m-29.23517,-0.9501l15.00029,11.5387m1.48492,-149.62702l88.98608,68.45082m-95.49937,-51.9225l82.79226,63.6863m-18.33109,-143.33159l94.56721,72.74399m-85.75413,-44.42624l73.04824,56.19094m-90.01827,-47.70635l77.3121,59.47085m-87.49889,-45.76841l74.79397,57.53381m-83.75058,-42.88502l71.04347,54.64882m-97.13413,-74.71856l19.76022,15.20017m137.23136,-131.3605l49.28101,37.90847m-90.95431,-69.96485l17.62444,13.55726m-78.66497,-60.51152l56.35891,43.35301m-131.67853,-101.29117l50.74109,39.0316m115.90098,110.69307l55.7336,42.872m-159.51532,-122.70409l79.70723,61.31325m-142.56726,-109.6671l38.78554,29.83501m115.39694,110.30534l63.57885,48.9068m-105.95268,-81.50206l18.10285,13.92527m-43.35629,-33.35099l8.38079,6.44677m-42.96331,-33.0487l17.65861,13.58354m-69.63203,-53.56312l28.0698,21.59217m112.82761,108.32893l72.57176,55.82443m-115.01609,-88.47391l17.57318,13.51783m-74.01752,-56.93655l16.36861,12.59123m-58.37716,-44.9055l18.15619,13.96629m161.27344,145.59496l27.68858,21.29891m-80.45938,-61.89183c10.47101,8.05462 20.94202,16.10924 31.41302,24.16386m-72.10386,-55.46451c5.11733,3.93641 10.23465,7.87281 15.35197,11.80921m-67.78959,-52.14584l12.7805,9.83115m-46.31055,-35.6235l9.17364,7.05665m156.30991,141.77684l28.92724,22.25173m-83.15037,-63.96182l37.34194,28.72457m-74.50448,-57.31114l10.87538,8.36568m-58.7168,-45.16678c2.39207,1.84006 4.78414,3.68011 7.17621,5.52017m60.15719,67.8132l88.11627,67.78176m-118.69207,-91.3016l2.99864,2.30664m151.89133,-120.08357l40.25944,30.9688m-197.4276,-151.86739l65.88501,50.68078m86.66645,88.20497l37.8553,29.11946m-67.05566,-51.58127l3.89566,2.99666m-52.57431,-40.44177l7.90238,6.07875m-98.55081,-75.80831l63.7718,49.05523m97.65291,96.65607l38.4032,29.54092m-73.57519,-56.5963l10.76432,8.28024m-63.62055,-48.93888l13.36997,10.28459m-102.74339,-79.03337l63.47924,48.83018m105.44422,102.6494l40.69749,31.30576m-79.39779,-61.07522l14.51475,11.16519m-71.35207,-54.8862l16.81422,12.93402m-106.17481,-81.67292l64.27801,49.44461m111.44148,107.26267l44.06545,33.8965m-84.89298,-65.30229l16.66761,12.82124m-40.71647,-31.32036l6.19376,4.76443m-41.81853,-32.1681l17.9149,13.7807m-105.94096,-81.49306l63.50732,48.8518m212.90115,13.00087l5.75958,4.43045m-173.50499,-133.46537l44.53665,34.25896m105.26481,102.51139l15.28866,11.76051m-181.06611,-139.28161l41.92795,32.25227m117.85737,112.19795l13.27869,10.21438m-189.03999,-145.41536l70.63831,54.33715m133.12215,-26.82911l14.68561,11.29662m-65.74779,-50.57522l11.40505,8.77312m-68.24678,-52.49753l32.54512,25.03471m99.44696,98.0361l6.37722,4.90556m-41.66027,-32.04636l8.60291,6.61762m-55.23976,-42.49212l4.87812,3.7524m-70.92628,-54.55867l41.46962,31.89971m89.39171,90.30132l13.42955,10.33042m-160.26781,-123.28294l51.85595,39.88919m74.33874,78.72212l24.46923,18.82248m-166.63867,-128.1836l36.20069,27.84668m125.78361,-32.47412l50.61793,38.93687m-79.31424,-61.01096l17.90636,13.77412m-55.33902,-42.56847l13.46923,10.36094m71.84416,76.8032l18.75213,14.42471m-77.40914,-59.54548l17.68424,13.60326m-60.3166,-46.39739l18.95086,14.57758m69.32394,74.86457c5.83779,4.49061 11.67559,8.98122 17.51338,13.47183m-72.78731,-55.99024c5.22269,4.01745 10.44538,8.0349 15.66806,12.05236m-64.64587,-49.7276l25.18524,19.37326m56.07013,-21.4845l79.33988,61.03067m-112.66758,-86.66737l8.92003,6.86156m388.14494,-53.82423l0,84.33594c0,30 40,40 40,0l0,-84.25m-34.65891,0.19326c19.60182,54.51348 14.65891,94.05674 14.65891,94.05674m16.9577,-94.1374c-16.9577,35.90857 -16.9577,94.1374 -16.9577,94.1374m22.13072,-94.35592l7.10273,83.53219c2.54172,29.89214 43.24514,36.46722 39.85618,-3.38895l-7.06217,-83.05531m-34.38925,2.68417c23.93653,52.43496 22.37057,92.02966 22.37057,92.02966m8.60757,-94.38125c-13.46605,37.24268 -8.60757,94.38125 -8.60757,94.38125m17.10147,-95.22178l6.25682,82.71295c2.26289,29.91454 42.90323,36.86887 39.88605,-3.01717l-6.45564,-85.34137m-33.99683,5.14519c23.18518,52.37725 21.26374,91.67628 21.26374,91.67628m10.3176,-96.44832c-14.81371,37.01121 -10.3176,96.44832 -10.3176,96.44832m13.78999,-96.10594l13.26933,83.95788c4.68329,29.63219 45.75398,33.26519 39.50959,-6.2444l-13.65693,-86.4103m-34.18329,7.91627c28.34083,51.20349 29.64652,91.49363 29.64652,91.49363m3.17369,-99.18822c-12.84818,37.97565 -3.17369,99.18822 -3.17369,99.18822m6.01749,-97.7741l18.16509,83.03631c6.4112,29.30694 47.62419,30.52764 39.07591,-8.54827l-18.75123,-85.71571m-33.60528,10.15913c31.29184,49.45525 34.95562,89.59969 34.95562,89.59969m-2.55168,-99.53256c-10.76755,38.64765 2.55168,99.53256 2.55168,99.53256m3.16727,-99.22336l25.44858,81.10098c8.98186,28.62388 50.14098,26.18937 38.16517,-11.9758l-25.5629,-81.4653m-33.2802,10.84314c35.54931,46.48921 42.75447,86.15135 42.75447,86.15135m-11.7869,-96.38416c-6.09126,39.40902 11.7869,96.38416 11.7869,96.38416m0.59647,-99.84541c34.2255,44.23352 41.87841,81.76118 41.87841,81.76118m-48.12411,-80.03869l25.97639,76.95996c9.59415,28.4245 50.69154,25.10713 37.89933,-12.79221l-6.72151,-19.91375m-22.64587,-25.87522c3.47115,31.60456 13.61577,61.65991 13.61577,61.65991m-345.51577,-44.21785l-7.95211,82.32496c-2.8844,29.86101 35.96882,43.66055 39.81468,3.84586l7.98572,-82.67291m-33.99002,-2.68378c13.68761,55.25976 5.1355,93.38742 5.1355,93.38742m25.26845,-90.94341c-19.79172,34.24493 -25.26845,90.94341 -25.26845,90.94341m-55.91115,-102.48149l-8.10504,83.19519c-2.90889,29.85864 35.933,43.69004 39.81152,3.87852l7.75397,-79.59158m-33.77824,-6.14992c13.76992,55.46728 5.14888,93.75512 5.14888,93.75512m23.90309,-88.35131c-18.64883,34.41829 -23.90309,88.35131 -23.90309,88.35131m-51.94946,-106.8824l-21.02722,80.12864c-7.61471,29.01751 28.53706,48.84298 38.69002,10.15296l20.77353,-79.162m-32.81297,-9.20159c4.67718,56.70761 -9.84381,92.95961 -9.84381,92.95961m38.69696,-84.79165c-24.53379,30.81984 -38.69696,84.79165 -38.69696,84.79165m-30.63703,-108.10383l-30.27977,74.35613c-11.31459,27.78452 21.95992,52.13216 37.04604,15.08612l30.69157,-75.36733m-31.2912,-11.42141c-3.12865,55.39876 -21.69492,88.50718 -21.69492,88.50718m48.80543,-78.50614c-28.03946,27.51248 -48.80543,78.50614 -48.80543,78.50614m-19.93737,-107.92598l-40.0219,74.98832c-14.12537,26.46646 16.4548,54.12245 35.28863,18.83383l40.96167,-76.74916m-31.81733,-14.71876c-8.2522,57.93877 -31.49711,90.87315 -31.49711,90.87315m61.80988,-76.87713c-32.93074,22.76679 -61.80988,76.87713 -61.80988,76.87713m-51.03695,-61.04973l-8.57291,10.17942c-19.32507,22.94649 4.82857,56.36208 30.59533,25.76676l57.01447,-67.69868m-42.49149,10.89292c-17.7162,34.41437 -36.26232,51.5712 -36.26232,51.5712m77.98835,-62.94793c-37.37906,14.72867 -77.98835,62.94793 -77.98835,62.94793m-69.45892,8.7264c71.93894,-216.97117 141.98477,-384.20532 209.06369,-473.49087m-171.91516,452.07664c58.63904,-174.45191 115.99206,-315.117 171.47444,-406.63524m-109.55206,371.58436c38.25761,-111.11427 75.9475,-207.31304 112.90584,-284.29175m-75.03101,261.6093c27.39717,-78.25083 54.4962,-148.66867 81.23655,-209.66286m-209.59859,263.6507l25.68931,5.92829m-20.58175,-20.90346l40.53127,9.35335m-35.4223,-24.32821l55.37324,12.77843m-50.26568,-27.7536l70.21478,16.2034m-65.09938,-31.17678l85.05074,19.62709m-79.6348,-34.53111l99.58389,22.9809m-94.16608,-37.88448l101.51585,23.42674m-96.09989,-38.33074l101.47476,23.41725m-96.05839,-38.32117l101.43141,23.40725m-82.9472,-36.06474l88.57819,20.44112m-68.57819,-30.44112l73.45693,16.9516m-43.45693,-26.9516l49.42401,11.40555m40.57599,-366.40555l0,160c0,15 15,135 20,155c5,20 55,140 110,140c55,0 105,-55 105,-55m88.68813,-44.60036c-18.70244,34.49992 -48.63822,66.04618 -74.20644,97.59545m14.55,-53.80661c-15.63326,19.88187 -32.92052,39.14131 -48.28444,58.45629m78.83229,-79.43633c-18.43571,26.75956 -41.85813,52.04221 -62.18857,77.37903m-22.21543,-27.41704c-9.07594,10.75807 -18.11924,21.42764 -26.523,32.12373m10.98443,-27.10258c43.90875,-10.77137 110.28052,-61.0549 137.78778,-85.22159m5.27859,9.22499c-18.10187,32.62108 -46.06263,62.63198 -70.57659,92.55442m77.60165,-79.26564c-16.89613,26.26181 -39.21879,50.99411 -59.5803,75.59704m66.20119,-63.26766c-14.48896,20.29883 -31.61226,39.78858 -47.77761,59.15004m54.35022,-47.78255c-11.22745,14.63986 -23.50259,28.91546 -35.42042,43.09307m41.80396,-32.15078c-7.28052,9.03424 -14.83203,17.95256 -22.31288,26.81971m-107.16289,-15.27183c-11.94059,14.33972 -24.20147,28.4529 -35.37594,42.60614m-36.65309,-10.34909c-3.27851,3.992 -6.49784,7.98201 -9.62642,11.97602m33.94391,-23.17402c-6.46203,7.69125 -12.81445,15.3545 -18.83283,23.03227m-53.1443,-8.5794c-1.59275,1.95969 -3.16916,3.91928 -4.72551,5.87951m17.55275,-3.19315c-1.21917,1.51504 -2.42757,3.03022 -3.62345,4.54588m19.53938,-5.68159c-1.77645,2.19796 -3.53111,4.39605 -5.25871,6.59526m-51.90826,-28.05959c-5.38247,6.38054 -10.72616,12.73499 -15.90375,19.08748m24.38823,-11.34235c-3.9391,4.70268 -7.82885,9.39645 -11.61784,14.09105m21.03252,-7.38139c-2.61027,3.15912 -5.18713,6.31629 -7.71495,9.47451m-32.47521,-51.22531c-9.95799,12.36351 -20.42689,24.50931 -30.53143,36.60331m37.58781,-26.89468c-8.48024,10.22731 -17.15589,20.33349 -25.51887,30.41481m32.89527,-21.29697c-6.97613,8.29118 -13.9815,16.52086 -20.74028,24.7413m-32.69704,-51.1274c-8.27427,10.61176 -17.04813,21.04115 -25.78073,31.39067m51.27957,-45.3915c-12.25087,17.08909 -26.34664,33.6086 -40.13884,49.96571m46.86851,-38.84367c-11.21622,14.59751 -23.46362,28.83471 -35.34773,42.97589m434.53293,-96.44367c0.34096,0.003 0.68155,0.005 1.02175,0.005m-133.76063,-11.22073c20.8936,12.03069 50.76833,29.65148 82.54355,42.2414m-93.53596,-66.84733c19.39203,11.12475 47.3371,27.79868 77.54912,40.59262m-87.1814,-64.41485c17.87385,10.22982 43.35865,25.48396 71.2829,38.00519m-80.07522,-61.34582c16.21671,9.27629 38.76054,22.74424 63.72809,34.54877m-71.77817,-57.46472c14.45142,8.27693 33.81252,19.77925 55.38856,30.46483m-62.73782,-52.97817c12.51922,7.18826 28.53366,16.62681 46.38676,25.83079m-53.05661,-47.95153c10.19434,5.86961 22.53171,13.07445 36.18769,20.37791m-42.70627,-42.40919c7.69789,4.43963 16.52374,9.55619 26.15033,14.85885m44.06141,171.80182c22.31331,12.87513 53.54313,30.93436 86.1883,42.92596m-72.23384,-16.6082c23.50907,13.52927 55.24385,31.31011 87.84512,42.3037m-71.41989,-14.59484c24.23485,13.7717 55.35058,30.3804 86.79514,39.99805m-68.7541,-11.46572c24.44448,13.54389 54.2983,28.51644 84.03005,36.62054m-62.5585,-6.42024c23.594,12.45491 50.83412,24.92535 77.64486,31.29809m-51.84719,0.64015c21.15869,10.22532 44.22837,19.43726 66.7635,23.96752m-37.61397,8.53114c17.16795,7.15255 35.02079,12.99596 52.41567,15.81593m-22.30513,14.48238c12.58168,4.83013 25.42253,8.82246 38.08783,11.32495m202.4264,-143.57728c9.9384,-3.7519 28.2323,-25.4038 48.2323,-25.4038c-20,0 -38.2939,-21.6519 -48.2323,-25.4038c-10.9045,-4.1166 -26.7677,0.4038 -41.7677,10.4038c10,-15 14.5204,-30.86328 10.4038,-41.76777c-3.7519,-9.93833 -25.4038,-28.23223 -25.4038,-48.23223c0,20 -21.6519,38.2939 -25.4038,48.23223c-4.1166,10.90449 0.4038,26.76777 10.4038,41.76777c-15,-10 -30.8632,-14.5204 -41.7677,-10.4038c-9.9384,3.7519 -28.2323,25.4038 -48.2323,25.4038c20,0 38.2939,21.6519 48.2323,25.4038c10.9045,4.1166 26.7677,-0.4038 41.7677,-10.4038c-10,15 -14.5204,30.86328 -10.4038,41.76777c3.7519,9.93833 25.4038,28.23223 25.4038,48.23223c0,-20 21.6519,-38.2939 25.4038,-48.23223c4.1166,-10.90449 -0.4038,-26.76777 -10.4038,-41.76777c15,10 30.8632,14.5204 41.7677,10.4038l0,0m-124.4733,-45.294c-20.4756,-25.94348 19.6216,-68.22313 47.576,-46.85197m90.0698,49.89416c27.6137,-26.57534 -19.4668,-76.1485 -48.4601,-46.65991m-88.1842,82.19762c-22.9405,26.05054 18.9495,70.57393 47.3617,47.4311m89.1494,-49.40024c27.9147,26.56009 -19.3449,76.38398 -48.3801,46.73314m-36.4269,-78.4537l-35,-35m65,35l35,-35m-65,65l-35,35m65,-35l35,35m-59.6223,31.42052c3.8088,80.77311 35.1376,104.71144 35.0547,161.94598m-19.8269,-157.70977c4.3238,71.49985 30.4518,97.50883 34.3427,145.38456m-14.9482,8.95871c-10.1872,-37.43261 -63.0235,-86.31451 -115,-60c46.0391,-3.5732 39.6973,80.55961 115,60l0,0m0.4326,3.13982c-17.5055,-27.47699 -38.9178,-38.03052 -60.4326,-48.13982m75,30c-9.6941,-63.40796 2.6966,-107.0578 55,-115c-35.6108,31.84211 6.9504,101.1648 -55,115l0,0m0,0c4.9203,-31.94665 12.7832,-59.34103 25,-80m-612.05673,-549.95434c18.25435,56.9057 55.47873,84.50418 107.50925,89.22831m-89.79389,-89.27397c16.18977,35.08912 41.58049,55.9635 74.70578,64.88856m-51.48345,-64.5294c9.36861,15.13265 20.91459,26.90143 34.46264,35.57716m-203.03928,66.14623c69.53376,-38.94264 74.65443,-70.30527 83.29807,-102.08248m-83.55389,78.34599c46.12575,-29.01595 57.40503,-53.93123 64.47231,-78.35086m-64.66162,48.32704c23.50866,-17.211 35.29434,-33.04247 42.39183,-48.32224m67.74898,330c0,0 -5,-20 -15,-20c-10,0 -20.05025,-3.93934 -20.05025,-18.93934c0,-10 23.76024,-81.56698 15.05025,-141.06066c-27.23969,-19.33581 -56.03661,-29.64381 -90,-10c1.71052,-0.37051 3.46873,0.15895 5.12877,-0.37589c29.87123,-9.62411 58.13024,-9.18759 84.87123,10.37589m35,0c35.93792,-42.8397 75.41308,-22.41924 115,0c-37.61142,-16.4876 -75,-35 -109.47384,0.18444c-1.14892,1.17261 -4.27541,-1.36067 -5.52616,-0.18444l0,0m10,120c30.36676,-1.00978 25,35 10,35c-6.5502,0 -13.36325,-8.16819 -18.66415,-8.61698c-16.33585,-1.38302 -16.33585,8.61698 3.66415,3.61698m-50,50l0,10l5,-5l-5,-5l0,0m95,-5l0,10l-5,-5l5,-5m-90,10c11.94693,6.2699 14.48458,-4.75282 20,-5c5,0 10.65685,4.6967 15.65685,4.6967c5,0 12.82843,-6.16116 17.82843,-6.16116c17.81509,10.95158 19.3336,1.89839 31.51472,1.46446m-70,25c13.06107,15.59169 28.64499,10.89619 45,0c-13.50934,8.03148 -29.04097,5.16713 -45,0l0,0m-95,-190c3.60493,-9.01233 14.37536,-17.16598 25.37113,-17.0953c19.50623,0.12538 34.62887,22.0953 49.62887,22.0953m-77.19673,1.57445c3.29471,9.63191 14.68124,13.08999 27.19673,13.42555c21.48756,1.0473 35,-10 50,-15m55,0c21.96964,-0.78554 30.60857,-17.60143 45,-20c30,-5 50,20 65,20m-90,-5c-5,15 16.98324,24.90799 30,25c19.15313,0.13539 45,-20 60,-20m-456.62263,344.5969c211.008,146.18047 473.964,157.35655 717.79923,40.63511m-821.1766,369.76799a15,15 0 0 1 -15,15a15,15 0 0 1 -15,-15a15,15 0 0 1 15,-15a15,15 0 0 1 15,15l0,0m0,0a15,15 0 0 1 -15,15a15,15 0 0 1 -15,-15a15,15 0 0 1 15,-15a15,15 0 0 1 15,15l0,0m-126.57211,117.3798a15,15 0 0 1 -15,15a15,15 0 0 1 -15,-15a15,15 0 0 1 15,-15a15,15 0 0 1 15,15l0,0m1042.59311,-59.6215l203.9791,-188.86948m-760.0001,191.11118c-36.78985,22.2324 -13.09636,-13.8056 -10,-30c-16.19445,3.09636 -52.23247,26.7898 -30,-10c-1.38148,-2.28605 -2.53798,-4.33857 -3.48822,-6.17701c-14.3422,-27.74788 18.30006,-6.72695 33.48822,-3.82299c-3.09636,-16.19445 -26.78985,-52.23247 10,-30c36.78985,-22.23247 13.09636,13.80555 10,30c15.56552,-2.97611 49.46325,-24.98059 32.33118,5.9826c-0.69222,1.25108 -1.46776,2.58863 -2.33118,4.0174c22.23247,36.7899 -13.80555,13.09636 -30,10c3.09636,16.1944 26.78985,52.2324 -10,30l0,0m89.99999,29.641c-42.97714,0.8589 -4.43898,-18.5042 6.33975,-30.9807c-15.57301,-5.4157 -58.62955,-2.9156 -20.98076,-23.66029c-0.85894,-42.97723 18.50413,-4.43901 30.98076,6.33974c5.4157,-15.57298 2.91554,-58.62957 23.66025,-20.98076c42.97718,-0.85896 4.43901,18.50414 -6.33974,30.98076c15.57298,5.41565 58.62957,2.91555 20.98076,23.66025c0.85893,42.9772 -18.50416,4.439 -30.98076,-6.3397c-5.41568,15.5729 -2.91551,58.6295 -23.66026,20.9807l0,0m540.00001,-647.141c9.3096,0 17.5,8.19036 17.5,17.5c0,9.30964 -8.1904,17.5 -17.5,17.5c-9.3096,0 -17.5,-8.19036 -17.5,-17.5c0,-9.30964 8.1904,-17.5 17.5,-17.5l0,0" fill="none" stroke-width="6" stroke-linejoin="round" stroke-linecap="round" stroke="#44F"/>
 </symbol>
 <symbol viewBox="0 0 1300 2000" preserveAspectRatio="none" id="HQ6">
  <path id="svg_8" d="m1197.8654,650c10.0574,2.91461 25.5081,-8.83844 25.5081,-8.83844m-6.2142,23.83844c12.8407,5 12.8407,20 12.8407,20m-11.1779,8.40806c10.346,9.10185 5.1999,23.19148 5.1999,23.19148m-4.022,13.40046c9.3763,10.09794 2.8368,23.59737 2.8368,23.59737m-7.4345,5.01136c9.2828,10.18402 2.619,23.62255 2.619,23.62255m21.9787,-137.23128c5.0425,2.35668 8.7799,5.45909 10,10m-7.0625,30.7889c4.2582,3.58444 7.0625,7.55041 7.0625,12.25237m-7.1141,23.87565c3.69,4.16703 5.8861,8.49951 5.2005,13.15122m-6.9082,24.30411c1.8977,5.23256 2.3453,10.06917 0,14.14213m-646.1782,-368.51438c12.68307,-6.06073 25.88877,-7.25029 40,0m-140,-240c20,-20 45,-20 60,-5m-35,70c20,5 40,-15 40,-15m90,-50c30,-15 60,0 75,15l0,0m-55,50c35,0 55,-20 55,-20m-183.47341,-37.66519c1.53321,3.50623 2.41275,7.59372 2.41275,11.95808c0,13.02607 -7.83502,23.58578 -17.5,23.58578c-9.66498,0 -17.5,-10.55971 -17.5,-23.58578c0,-4.90159 1.10939,-9.45395 3.00823,-13.22587m180.91291,0.07548c3.01903,4.23816 4.87459,9.99321 4.87459,16.33237c0,13.02607 -7.83502,23.58578 -17.5,23.58578c-9.66498,0 -17.5,-10.55971 -17.5,-23.58578c0,-5.63733 1.46744,-10.81272 3.91557,-14.87019" fill="none" stroke-width="3" stroke-linejoin="round" stroke-linecap="round" stroke="#44F"/>
  <use id="svg_9" transform="rotate(30 967.183 1188.66) matrix(1 0 0 0.972 930 1152.04)" x="-464.75402" y="661.36035" width="75" height="75" xlink:href="#H"/>
  <use id="svg_10" transform="rotate(15 1013.35 1067.6) matrix(1 0 0 0.972 976 1031.04)" x="-241.78479" y="307.25579" width="75" height="75" xlink:href="#H"/>
  <use id="svg_11" transform="rotate(3 1041.47 942.511) matrix(1 0 0 0.972 1004 906.036)" x="-47.8999" y="57.40553" width="75" height="75" xlink:href="#H"/>
  <use id="svg_12" transform="rotate(5 1054.45 816.526) matrix(1 0 0 0.972 1017 780.036)" x="-67.15246" y="97.74577" width="75" height="75" xlink:href="#H"/>
  <use id="svg_13" transform="rotate(10 1068.41 699.563) matrix(1 0 0 0.972 1031 663.036)" x="-105.24636" y="201.80517" width="75" height="75" xlink:href="#H"/>
 </symbol>
 <g>
  <title>Layer 1</title>
  <use id="svg_29" y="35.84" x="30.32" width="55.68" height="55.68" xlink:href="#H"/>
  <use transform="rotate(180 181.84 272.32)" id="svg_33" y="244.48" x="154" width="55.68" height="55.68" xlink:href="#H"/>
  <use x="120" y="168" id="svg_34" fill="none" stroke="#44F" xlink:href="#HQX"/>
  <text transform="matrix(1 0 0 1 0 0)" style="cursor: move;" xml:space="preserve" text-anchor="start" font-family="'Cinzel'" font-size="108" id="svg_38" y="200.62475" x="81.5042" stroke-width="0" stroke="#44F" fill="#ff0000">∞</text>
 </g>
</svg>