<svg width="11" height="11" viewBox="0 0 11 11" fill="none" xmlns="http://www.w3.org/2000/svg">
  <path d="M10.1854 0H4.10497C3.67162 0 3.31909 0.35255 3.31909 0.785878V2.63039H4.03648V0.785878C4.03648 0.74812 4.06721 0.717391 4.10497 0.717391H10.1854C10.2231 0.717391 10.2539 0.74812 10.2539 0.785878V6.8663C10.2539 6.90408 10.2231 6.93481 10.1854 6.93481H8.39839V7.6522H10.1854C10.6187 7.6522 10.9713 7.29965 10.9713 6.8663V0.785878C10.9712 0.35255 10.6187 0 10.1854 0Z" fill="white"/>
  <path d="M6.89504 3.34778H0.814649C0.381297 3.34778 0.0287476 3.70033 0.0287476 4.13368V10.2141C0.0287715 10.6475 0.381297 11 0.814649 11H6.89506C7.32841 11 7.68096 10.6474 7.68096 10.2141V4.13368C7.68099 3.70033 7.32839 3.34778 6.89504 3.34778ZM6.89509 10.2826H0.814649C0.776867 10.2826 0.746138 10.2519 0.746138 10.2141V4.13368C0.746138 4.0959 0.776867 4.06517 0.814649 4.06517H6.89506C6.93285 4.06517 6.96357 4.0959 6.96357 4.13368V10.2141H6.9636C6.9636 10.2519 6.93285 10.2826 6.89509 10.2826Z" fill="white"/>
</svg>
