<svg width="13" height="12" viewBox="0 0 13 12" fill="none" xmlns="http://www.w3.org/2000/svg">
<path d="M9.98239 9.10619L12.1382 11.125M7.85843 9.90156C7.48713 9.96731 7.11006 10.0003 6.73218 10C4.04239 10 1.76585 8.34456 1 6.0625C1.20619 5.44831 1.52378 4.87195 1.93884 4.35869L7.85843 9.90156ZM5.45756 4.86944C5.79553 4.55294 6.25392 4.37514 6.73188 4.37514C7.20984 4.37514 7.66823 4.55294 8.0062 4.86944C8.34417 5.18593 8.53404 5.61519 8.53404 6.06278C8.53404 6.51037 8.34417 6.93963 8.0062 7.25612L5.45756 4.86944ZM5.45756 4.86888L8.0056 7.255L5.45756 4.86888ZM5.45876 4.87L3.48256 3.01938L5.45876 4.87ZM8.0068 7.25612L9.983 9.10675L8.0068 7.25612ZM1.32616 1L3.48256 3.01938L1.32616 1ZM3.48256 3.01938C4.45105 2.43413 5.57955 2.12354 6.73218 2.125C9.42197 2.125 11.6985 3.78044 12.4644 6.0625C12.0415 7.31713 11.1635 8.39382 9.98239 9.10619L3.48256 3.01938Z" stroke="#555555" stroke-linecap="round" stroke-linejoin="round"/>
</svg>
