<svg width="15" height="10" viewBox="0 0 15 10" fill="none" xmlns="http://www.w3.org/2000/svg">
  <path d="M7.90434 0.0967551C8.09069 0.191301 8.2376 0.348614 8.3173 0.541324L9.99185 4.59052L13.4313 0.399593C13.7376 0.0264368 14.2931 -0.0316675 14.6721 0.26981C14.8795 0.434717 15 0.683062 15 0.945469V8.40296C15 9.12254 14.4074 9.70588 13.6765 9.70588H1.32353C0.592566 9.70588 0 9.12254 0 8.40296V0.945267C0 0.465545 0.395043 0.0766539 0.882353 0.0766539C1.14888 0.0766539 1.4011 0.195255 1.56862 0.39933L5.00901 4.5905L6.68281 0.541439C6.85775 0.118258 7.33304 -0.0956562 7.76782 0.0411301L7.83266 0.0642943L7.90434 0.0967551Z" fill="url(#paint0_linear_260_293)"/>
  <defs>
    <linearGradient id="paint0_linear_260_293" x1="7.5" y1="0" x2="7.5" y2="9.70588" gradientUnits="userSpaceOnUse">
      <stop stop-color="#FFC923"/>
      <stop offset="1" stop-color="#FFAD41"/>
    </linearGradient>
  </defs>
</svg>
