<svg width="19" height="19" viewBox="0 0 19 19" fill="none" xmlns="http://www.w3.org/2000/svg">
<path d="M15.5147 4.01376L10.4678 3.12313C10.4038 3.11238 10.3382 3.11567 10.2756 3.13276C10.2129 3.14985 10.1548 3.18034 10.1051 3.22213C10.0554 3.26391 10.0154 3.31599 9.98778 3.37476C9.9602 3.43353 9.94571 3.49759 9.94532 3.56251V4.06126L7.08344 4.75001C6.98635 4.77384 6.90002 4.82944 6.83816 4.90798C6.7763 4.98651 6.74246 5.08347 6.74203 5.18344V6.40063C6.74203 6.51874 6.78895 6.632 6.87246 6.71551C6.95598 6.79903 7.06924 6.84594 7.18735 6.84594C7.30545 6.84594 7.41872 6.79903 7.50223 6.71551C7.58574 6.632 7.63266 6.51874 7.63266 6.40063V5.52782L9.94532 4.97563V14.0659L7.63266 13.5138V12.7656C7.63266 12.6475 7.58574 12.5343 7.50223 12.4507C7.41872 12.3672 7.30545 12.3203 7.18735 12.3203C7.06924 12.3203 6.95598 12.3672 6.87246 12.4507C6.78895 12.5343 6.74203 12.6475 6.74203 12.7656V13.8641C6.74246 13.964 6.7763 14.061 6.83816 14.1395C6.90002 14.2181 6.98635 14.2737 7.08344 14.2975L9.94532 14.9803V15.4375C9.94621 15.5023 9.96103 15.5661 9.98877 15.6246C10.0165 15.6831 10.0565 15.735 10.1061 15.7767C10.1557 15.8183 10.2136 15.8489 10.276 15.8662C10.3385 15.8835 10.4039 15.8871 10.4678 15.8769L15.5147 14.9863C15.618 14.9681 15.7115 14.914 15.7788 14.8337C15.8462 14.7533 15.883 14.6517 15.8828 14.5469V4.45313C15.883 4.34827 15.8462 4.24671 15.7788 4.16634C15.7115 4.08596 15.618 4.03193 15.5147 4.01376Z" fill="white"/>
<path d="M8.62719 9.49995C8.62708 9.38189 8.5801 9.2687 8.49656 9.18526L6.71531 7.40401C6.66276 7.35223 6.59825 7.31421 6.52748 7.29334C6.45672 7.27247 6.3819 7.26938 6.30966 7.28436C6.23741 7.29934 6.16999 7.33191 6.11335 7.3792C6.05672 7.42648 6.01263 7.48701 5.985 7.55542C5.9497 8.04938 5.9398 8.54482 5.95531 9.03979H3.5625C3.4444 9.03979 3.33113 9.08671 3.24762 9.17022C3.1641 9.25374 3.11719 9.367 3.11719 9.48511C3.11719 9.60321 3.1641 9.71648 3.24762 9.79999C3.33113 9.8835 3.4444 9.93042 3.5625 9.93042H5.96125C5.9457 10.4254 5.95561 10.9208 5.99094 11.4148C6.01857 11.4832 6.06266 11.5437 6.11929 11.591C6.17592 11.6383 6.24335 11.6709 6.31559 11.6859C6.38783 11.7008 6.46266 11.6977 6.53342 11.6769C6.60418 11.656 6.6687 11.618 6.72125 11.5662L8.5025 9.78495C8.57697 9.70803 8.62124 9.60685 8.62719 9.49995Z" fill="white"/>
</svg>
