<svg width="14" height="11" viewBox="0 0 14 11" fill="none" xmlns="http://www.w3.org/2000/svg">
<path d="M8.83875 5.375C8.83875 5.87228 8.6412 6.34919 8.28957 6.70083C7.93794 7.05246 7.46103 7.25 6.96375 7.25C6.46646 7.25 5.98955 7.05246 5.63792 6.70083C5.28629 6.34919 5.08875 5.87228 5.08875 5.375C5.08875 4.87772 5.28629 4.40081 5.63792 4.04917C5.98955 3.69754 6.46646 3.5 6.96375 3.5C7.46103 3.5 7.93794 3.69754 8.28957 4.04917C8.6412 4.40081 8.83875 4.87772 8.83875 5.375V5.375Z" stroke="#5E5E5E" stroke-linecap="round" stroke-linejoin="round"/>
<path d="M1 5.375C1.79625 2.83937 4.16562 1 6.96375 1C9.7625 1 12.1312 2.83937 12.9275 5.375C12.1312 7.91063 9.7625 9.75 6.96375 9.75C4.16562 9.75 1.79625 7.91063 1 5.375V5.375Z" stroke="#5E5E5E" stroke-linecap="round" stroke-linejoin="round"/>
</svg>
